<?xml version="1.0" standalone="no"?>
<!DOCTYPE svg PUBLIC "-//W3C//DTD SVG 20010904//EN"
 "http://www.w3.org/TR/2001/REC-SVG-20010904/DTD/svg10.dtd">
<svg version="1.0" xmlns="http://www.w3.org/2000/svg"
 width="2800.000000pt" height="2800.000000pt" viewBox="0 0 2800.000000 2800.000000"
 preserveAspectRatio="xMidYMid meet">

<g transform="translate(0.000000,2800.000000) scale(0.100000,-0.100000)"
fill="#000000" stroke="none">
<path d="M6268 19018 c-1 -13 -2 -32 -3 -43 -1 -11 -6 -19 -13 -18 -6 2 -9 -4
-6 -12 4 -10 0 -15 -11 -15 -11 0 -15 -5 -11 -16 4 -10 2 -13 -6 -8 -8 5 -9 2
-5 -9 3 -9 2 -19 -3 -22 -5 -3 -15 -25 -21 -48 -7 -23 -14 -46 -15 -52 -2 -5
-8 -30 -14 -55 -7 -25 -16 -54 -20 -65 -20 -47 -60 -217 -96 -410 -88 -470
-117 -1013 -70 -1306 9 -52 25 -172 36 -266 11 -95 23 -180 27 -189 4 -11 2
-15 -5 -11 -6 4 -12 -1 -15 -10 -2 -10 -7 -1 -11 22 -4 22 -12 49 -17 60 -13
28 -74 349 -93 485 -20 146 -36 350 -36 454 0 80 0 81 -16 51 -21 -38 -33 -91
-39 -180 -3 -38 -9 -72 -13 -75 -4 -3 -9 -23 -11 -45 -2 -22 -6 -42 -10 -45
-4 -3 -8 -32 -8 -65 -1 -33 -2 -61 -3 -62 -2 -2 -3 -11 -4 -20 -1 -10 -5 -31
-9 -48 -13 -53 -18 -135 -22 -320 -1 -99 -6 -197 -10 -217 -4 -24 -2 -38 4
-38 7 0 8 -9 3 -22 -13 -39 -1 -200 17 -222 8 -9 8 -16 2 -20 -5 -4 -8 -28 -5
-54 7 -62 12 -97 14 -97 1 0 3 -11 6 -25 2 -14 7 -32 10 -40 4 -8 7 -28 7 -45
0 -16 4 -35 9 -41 4 -6 10 -33 12 -58 2 -26 7 -50 10 -53 3 -4 6 -24 6 -45 0
-24 4 -37 10 -33 6 4 10 -8 10 -29 0 -19 5 -36 10 -38 6 -2 12 -13 15 -26 2
-12 7 -27 10 -32 4 -6 8 -25 10 -43 5 -46 12 -73 24 -96 6 -11 12 -31 13 -45
1 -15 5 -26 9 -26 6 0 23 -58 20 -72 0 -5 4 -8 11 -8 6 0 9 -3 5 -6 -8 -8 20
-84 39 -105 9 -10 13 -22 10 -28 -4 -5 -2 -12 4 -16 5 -3 10 -17 10 -31 0 -13
5 -24 10 -24 6 0 10 -13 10 -30 0 -16 5 -30 11 -30 7 0 9 -10 7 -24 -3 -15 0
-27 8 -30 8 -3 14 -12 14 -19 0 -8 7 -20 15 -27 8 -7 12 -16 9 -22 -3 -5 1
-19 9 -32 9 -13 19 -39 22 -60 4 -20 11 -36 16 -36 5 0 6 -6 3 -14 -3 -7 2
-16 10 -19 9 -4 13 -15 11 -27 -2 -11 1 -20 7 -20 6 0 8 -9 5 -20 -3 -11 -1
-20 4 -20 5 0 9 -4 9 -9 0 -5 5 -22 11 -38 7 -15 11 -45 10 -65 -2 -21 2 -38
7 -38 14 0 24 -32 14 -42 -5 -5 -6 -25 -2 -44 4 -19 6 -34 3 -34 -3 0 0 -7 7
-15 16 -19 25 -338 10 -365 -7 -13 -7 -21 0 -25 14 -9 12 -45 -2 -45 -9 0 -10
-2 -2 -8 13 -8 14 -259 1 -279 -4 -6 -3 -14 1 -17 11 -6 8 -112 -4 -140 -4
-11 -4 -17 2 -14 5 4 9 -5 9 -18 0 -13 -2 -24 -5 -24 -8 0 -5 -378 2 -386 4
-3 3 -17 -2 -30 -6 -15 -6 -24 0 -24 6 0 8 -12 6 -26 -3 -14 -1 -35 3 -47 5
-12 5 -31 1 -42 -4 -11 -5 -24 -2 -30 8 -12 11 -36 17 -110 5 -69 8 -86 17
-101 8 -12 4 -47 -7 -64 -3 -6 -2 -10 3 -10 5 0 9 -12 10 -27 0 -16 3 -64 7
-108 3 -44 7 -97 7 -117 1 -21 5 -38 11 -38 5 0 7 -9 4 -20 -3 -11 -2 -20 3
-20 4 0 8 -24 9 -52 0 -29 4 -54 9 -56 4 -1 7 -22 6 -46 -1 -37 14 -91 17 -61
0 6 7 -21 14 -60 7 -44 9 -72 2 -76 -5 -4 -5 -8 2 -10 7 -3 14 -30 16 -62 3
-32 9 -67 15 -77 6 -11 8 -20 5 -20 -3 0 0 -10 7 -22 15 -28 15 -29 17 -72 0
-19 8 -41 16 -49 8 -9 10 -17 5 -19 -10 -3 26 -168 38 -178 4 -3 7 -9 7 -15 1
-26 18 -75 26 -75 5 0 9 -9 9 -19 0 -11 5 -23 10 -26 6 -3 10 -17 10 -31 0
-17 4 -23 12 -18 8 5 9 2 5 -10 -4 -10 -4 -23 0 -29 3 -6 7 -26 8 -45 1 -19 8
-40 16 -46 8 -6 13 -23 11 -38 -2 -16 1 -28 7 -28 6 0 11 -6 11 -14 0 -8 10
-36 22 -63 22 -48 25 -56 27 -81 0 -7 5 -11 10 -8 5 4 7 -4 3 -16 -3 -14 -2
-19 6 -14 14 8 36 -40 26 -56 -4 -6 1 -17 11 -24 10 -8 19 -27 20 -44 1 -16 4
-33 8 -36 4 -4 7 -15 7 -25 0 -10 6 -22 14 -26 8 -4 17 -20 20 -35 2 -14 9
-35 15 -46 6 -11 7 -22 4 -26 -3 -3 -1 -6 6 -6 7 0 9 -5 5 -12 -5 -8 -2 -9 9
-5 14 5 17 0 17 -24 0 -17 3 -28 8 -26 4 3 8 -6 9 -21 0 -14 8 -29 16 -34 9
-5 13 -16 10 -28 -3 -11 0 -20 6 -20 6 0 11 -7 11 -16 0 -8 4 -12 10 -9 6 3 7
-1 4 -9 -4 -9 0 -18 9 -22 8 -3 17 -23 21 -44 4 -27 12 -41 26 -45 11 -3 20
-11 20 -16 0 -6 -4 -7 -10 -4 -5 3 -10 1 -10 -4 0 -6 6 -11 13 -11 16 0 40
-47 32 -60 -3 -5 4 -14 15 -20 11 -6 20 -20 20 -30 0 -12 7 -20 18 -20 15 0
15 -2 2 -11 -11 -7 -12 -12 -3 -15 7 -3 9 -13 6 -21 -5 -12 -2 -15 9 -10 12 4
14 1 11 -14 -3 -10 0 -19 6 -19 6 0 11 -5 11 -11 0 -5 -6 -7 -12 -3 -10 6 -9
3 0 -8 8 -9 20 -14 27 -12 10 4 12 0 8 -15 -3 -12 -1 -21 6 -21 6 0 16 -11 21
-25 5 -14 15 -25 21 -25 6 0 8 -7 5 -16 -4 -10 -2 -13 6 -8 8 5 9 2 5 -9 -4
-12 -1 -17 10 -17 9 0 14 -3 10 -6 -3 -4 4 -15 16 -25 19 -16 20 -18 5 -19
-10 0 -18 -4 -18 -10 0 -5 6 -7 13 -4 16 6 52 -55 48 -83 -2 -21 9 -28 39 -25
3 0 7 -8 7 -19 2 -25 21 -49 39 -49 7 0 16 -4 19 -10 3 -6 -1 -7 -9 -4 -11 4
-16 0 -16 -10 0 -9 7 -16 15 -16 9 0 15 -9 15 -22 0 -12 3 -19 6 -15 11 10 31
-17 39 -52 4 -20 12 -31 20 -27 23 8 36 -16 17 -31 -14 -10 -14 -12 -1 -8 10
4 19 -3 27 -20 9 -19 9 -25 -1 -26 -6 0 0 -5 15 -10 15 -6 30 -19 33 -29 3
-10 13 -24 22 -32 14 -11 16 -11 9 1 -6 9 -4 12 5 9 8 -2 15 -17 17 -31 2 -15
10 -27 18 -27 8 0 14 -5 14 -11 0 -5 6 -7 13 -4 6 4 4 0 -6 -8 -16 -13 -16
-15 -1 -28 10 -8 22 -27 29 -43 9 -22 13 -25 18 -12 4 9 2 16 -4 16 -6 0 -8 7
-5 16 3 8 2 12 -4 9 -6 -3 -10 -1 -10 4 0 6 4 11 9 11 15 0 28 -24 26 -47 -1
-13 1 -23 5 -23 3 0 15 -7 26 -15 10 -8 14 -14 8 -13 -7 2 -12 -1 -13 -7 -1
-5 5 -10 12 -10 6 0 11 -11 11 -23 -1 -20 2 -23 25 -17 17 4 21 3 12 -4 -9 -5
-10 -14 -5 -22 5 -8 9 -18 9 -24 0 -5 10 -10 23 -9 18 0 21 -3 16 -19 -4 -12
-2 -17 4 -13 6 3 14 2 17 -4 5 -8 11 -7 21 1 10 8 14 8 14 0 0 -6 -4 -11 -10
-11 -5 0 -10 -5 -10 -10 0 -14 60 -76 71 -73 4 2 6 -4 3 -12 -4 -9 2 -18 16
-23 12 -4 21 -11 21 -15 -4 -31 1 -43 19 -45 58 -5 58 -6 35 -39 -15 -21 -14
-22 10 -17 16 3 25 0 25 -9 0 -7 7 -22 16 -33 8 -10 13 -13 9 -6 -3 7 0 12 8
12 8 0 14 -8 13 -17 0 -11 6 -17 17 -17 9 1 17 -4 17 -12 0 -8 7 -14 16 -14
12 0 15 -6 10 -26 -5 -17 -3 -23 4 -19 5 3 10 13 10 21 0 8 4 14 8 14 5 0 7
-16 6 -35 -2 -25 1 -35 11 -35 8 0 15 4 15 8 0 5 7 9 15 9 9 0 15 -7 13 -16
-1 -9 2 -22 7 -30 5 -10 4 -16 -3 -19 -7 -2 -12 -9 -12 -15 0 -8 4 -7 12 1 7
7 19 12 28 11 10 0 11 -2 3 -6 -19 -7 -15 -31 5 -29 9 0 16 -4 15 -11 -2 -8 4
-10 14 -6 13 5 15 2 9 -12 -4 -11 -4 -16 0 -12 4 4 16 -5 27 -20 10 -16 16
-20 13 -10 -3 11 -2 16 4 12 6 -3 10 -15 10 -25 0 -23 18 -35 48 -31 15 2 22
-3 22 -14 0 -9 -5 -13 -11 -9 -7 4 -7 -1 1 -16 7 -14 15 -18 19 -12 4 7 12 8
20 2 8 -4 21 -6 30 -3 13 4 14 3 2 -5 -21 -15 1 -62 29 -62 13 0 20 -7 20 -20
0 -11 6 -20 14 -20 8 0 17 -6 20 -12 5 -10 7 -10 12 0 4 9 14 3 31 -20 14 -18
23 -25 20 -16 -4 12 -2 15 8 12 8 -3 11 -12 8 -20 -3 -8 0 -14 5 -14 6 0 18
-7 27 -16 12 -12 13 -19 4 -30 -6 -8 -9 -15 -5 -15 44 -9 75 -29 70 -44 -8
-19 38 -37 72 -29 14 4 24 2 23 -2 -3 -21 2 -34 14 -34 21 -1 57 -37 57 -59 0
-11 4 -23 10 -26 5 -3 7 0 5 7 -4 9 3 14 20 16 22 2 24 -1 15 -17 -9 -17 -5
-21 25 -31 19 -6 37 -16 40 -21 4 -5 -2 -6 -12 -2 -16 6 -16 5 -4 -10 7 -9 20
-17 27 -17 8 0 14 -5 14 -11 0 -5 5 -7 10 -4 6 4 16 -8 22 -26 11 -31 12 -32
20 -10 4 13 6 27 3 31 -3 5 -2 11 3 14 4 2 9 -7 10 -20 2 -31 20 -49 47 -50
15 0 19 -5 18 -22 -2 -14 3 -22 12 -22 8 0 23 -9 32 -19 9 -11 20 -18 25 -15
4 3 8 1 8 -4 0 -6 8 -13 18 -17 14 -5 15 -4 5 6 -20 20 -15 31 5 12 10 -10 18
-25 18 -33 -1 -10 8 -15 28 -14 32 2 71 -26 48 -34 -21 -7 -13 -21 9 -17 17 4
19 2 9 -10 -10 -12 -8 -15 11 -17 13 0 32 0 42 0 10 1 16 -2 13 -7 -3 -5 2
-15 11 -22 12 -10 14 -10 9 -1 -4 7 -1 12 9 12 23 0 43 -22 38 -41 -5 -19 34
-34 40 -15 6 15 18 3 21 -21 2 -12 11 -18 27 -18 15 0 25 -7 27 -18 3 -12 10
-16 29 -13 18 4 23 1 20 -8 -4 -9 0 -12 13 -9 15 4 18 1 13 -16 -7 -26 5 -27
23 -3 12 16 12 16 11 -3 -2 -15 4 -20 21 -19 15 0 22 -5 22 -17 0 -10 4 -21
10 -24 5 -3 7 0 4 8 -3 8 -1 18 5 22 6 3 11 2 11 -3 0 -22 96 -93 130 -97 3 0
11 -4 18 -8 6 -5 12 -5 12 -1 0 4 8 0 18 -8 26 -23 46 -33 38 -20 -5 8 0 12
13 12 24 0 36 -16 19 -24 -7 -3 -1 -5 13 -3 18 3 32 -4 45 -19 11 -13 29 -23
42 -24 12 0 21 -6 20 -12 -2 -7 4 -12 13 -10 9 1 20 -5 23 -14 5 -13 9 -14 21
-4 12 10 15 9 15 -4 0 -10 4 -14 10 -11 5 3 10 0 10 -8 0 -10 7 -13 19 -10 13
3 23 -2 31 -16 8 -15 19 -21 39 -19 16 1 35 -3 43 -10 8 -6 18 -9 21 -5 4 3 7
-1 7 -10 0 -19 15 -23 25 -7 10 16 28 12 22 -5 -4 -8 -2 -17 3 -20 6 -4 10 -1
10 6 0 8 6 7 18 -4 12 -11 28 -14 50 -11 28 5 33 3 30 -13 -2 -10 3 -19 12
-19 8 -1 20 -3 25 -4 6 -1 18 -2 27 -1 12 2 15 -4 11 -18 -4 -17 -1 -19 25
-16 20 3 32 -1 36 -11 4 -10 17 -13 46 -10 22 2 40 0 40 -4 0 -4 12 -15 26
-25 18 -11 24 -12 18 -4 -6 12 -5 12 9 0 9 -7 17 -10 17 -5 0 5 5 2 10 -6 5
-8 17 -16 27 -17 48 -6 59 -9 71 -20 7 -7 19 -13 27 -13 7 0 21 -3 31 -7 12
-4 15 -3 10 5 -10 16 9 15 26 -1 13 -13 66 -32 81 -29 4 1 7 -4 7 -12 0 -9 7
-12 21 -9 12 4 25 0 31 -8 7 -11 11 -11 15 -2 7 19 27 16 43 -7 9 -12 21 -18
32 -14 11 3 18 0 18 -8 0 -10 3 -9 10 2 7 11 10 11 10 2 0 -7 4 -11 10 -7 5 3
28 -6 50 -20 22 -14 45 -23 51 -19 6 3 20 -2 31 -13 21 -18 21 -18 14 1 -5 16
-4 17 9 6 8 -7 15 -10 15 -6 0 4 11 -1 24 -9 16 -11 33 -14 51 -9 20 5 26 4
21 -5 -5 -7 4 -11 28 -11 22 0 36 -5 36 -12 0 -9 3 -9 8 -3 6 9 26 12 35 5 4
-4 52 -10 75 -10 12 0 22 -4 22 -9 0 -4 10 -8 23 -7 12 1 31 -4 42 -11 12 -7
26 -9 34 -4 7 5 33 2 60 -6 25 -8 66 -16 91 -18 25 -1 45 -3 45 -5 0 -1 7 -3
16 -5 9 -1 26 -6 37 -9 11 -4 23 -3 26 3 3 5 16 7 28 3 21 -5 21 -6 2 -13 -11
-5 -1 -6 24 -2 24 3 42 2 42 -4 0 -5 7 -10 15 -11 37 -4 82 -4 107 1 18 4 32
0 43 -13 13 -14 22 -17 35 -10 10 5 20 7 23 3 6 -6 152 -14 290 -17 37 0 67
-4 67 -7 0 -4 14 -5 32 -3 17 2 37 -1 45 -7 7 -6 13 -8 13 -3 0 5 18 9 40 9
22 0 40 -4 40 -9 0 -5 6 -3 14 3 11 9 15 9 19 -1 4 -10 7 -10 14 -1 7 10 15 9
35 -1 15 -8 29 -11 32 -8 4 3 102 6 219 8 116 1 233 4 259 6 27 3 45 1 41 -5
-3 -5 2 -5 13 0 11 6 37 9 58 7 22 -1 48 2 59 7 11 6 23 7 30 1 12 -9 105 -7
185 4 29 4 42 2 42 -6 0 -8 4 -9 13 -3 6 5 41 8 77 6 78 -4 93 -4 145 0 22 2
45 1 50 -2 10 -6 35 -9 95 -11 19 -1 50 -8 67 -15 18 -8 35 -10 38 -5 3 6 16
5 32 -1 14 -5 42 -12 62 -15 20 -3 37 -10 39 -14 2 -5 10 -6 18 -3 8 3 20 0
27 -6 7 -6 28 -12 46 -13 18 -1 37 -8 42 -15 6 -6 25 -15 42 -18 18 -4 42 -13
55 -21 12 -8 22 -12 22 -9 0 3 10 0 23 -7 12 -7 28 -11 35 -10 7 2 22 -4 34
-13 13 -8 33 -15 45 -15 13 0 23 -5 23 -11 0 -5 4 -7 10 -4 5 3 10 1 10 -5 0
-7 6 -10 14 -7 8 3 24 -3 37 -14 12 -10 27 -19 33 -20 41 -3 72 -12 78 -24 5
-7 30 -19 57 -26 28 -7 48 -16 45 -20 -9 -15 56 -21 73 -7 15 11 16 11 10 -4
-4 -12 -2 -15 7 -12 8 3 17 1 20 -5 4 -6 13 -8 21 -4 9 3 15 -1 15 -11 0 -10
9 -16 25 -16 14 0 25 -5 25 -11 0 -6 8 -3 18 7 16 17 17 17 20 0 3 -12 11 -16
30 -14 22 2 27 -1 26 -19 0 -15 3 -20 10 -14 23 17 45 20 39 5 -3 -7 0 -14 6
-14 6 0 11 4 11 9 0 5 9 7 20 4 11 -3 20 -9 20 -13 0 -4 11 -12 24 -18 17 -8
27 -7 36 1 10 9 14 9 17 -1 4 -10 8 -10 19 -1 12 10 13 9 8 -5 -9 -22 22 -21
35 2 9 15 10 15 11 1 0 -16 47 -36 57 -25 3 3 12 -2 20 -10 9 -8 22 -13 30
-10 8 3 11 1 8 -4 -7 -12 2 -12 30 -1 14 6 24 3 32 -8 12 -15 14 -14 24 2 5 9
15 17 20 17 6 0 7 -4 4 -10 -3 -5 -3 -10 2 -11 33 -3 58 -11 66 -22 7 -9 10
-9 13 0 3 7 12 9 21 6 12 -5 14 -3 8 8 -8 12 -6 12 8 0 10 -8 27 -11 42 -7 17
4 25 2 25 -7 0 -13 38 -16 57 -4 6 4 24 2 40 -4 33 -13 201 -19 225 -7 12 6
20 3 26 -9 8 -13 13 -15 24 -5 16 12 52 15 112 7 21 -2 47 0 57 6 13 7 19 6
19 -1 0 -6 5 -8 12 -4 6 4 25 8 42 10 17 1 43 5 59 9 24 6 26 5 21 -11 -5 -17
-4 -17 8 -4 15 17 33 23 70 24 14 1 24 4 21 9 -2 4 13 8 34 8 21 1 65 3 98 5
33 3 69 5 79 5 10 0 31 6 45 14 14 7 51 16 81 20 30 3 72 11 93 16 20 5 41 7
46 4 5 -3 16 1 24 9 8 8 32 18 53 22 21 4 62 16 89 26 28 11 63 22 80 25 16 3
42 11 57 19 15 8 33 14 41 14 8 0 20 6 26 14 7 8 21 13 32 11 10 -2 19 0 19 6
0 5 5 9 12 9 6 0 21 8 32 17 20 17 20 17 7 0 -13 -17 -13 -17 15 -6 56 22 134
63 134 70 0 7 40 22 53 20 12 -2 168 52 163 56 -2 2 -30 -3 -62 -11 -33 -8
-84 -18 -114 -21 -33 -3 22 14 135 44 377 98 706 221 1030 384 239 120 480
271 622 387 7 6 24 15 38 22 14 6 25 17 25 25 0 7 7 13 16 13 10 0 40 22 68
50 28 27 70 68 94 90 34 31 38 39 22 37 -12 -2 -25 -9 -29 -16 -5 -7 -11 -12
-15 -12 -18 3 -26 -1 -61 -29 -20 -16 -63 -42 -94 -57 -31 -15 -57 -31 -59
-35 -2 -4 -9 -8 -15 -8 -7 0 -18 -9 -25 -21 -8 -12 -19 -18 -28 -15 -8 3 -14
1 -14 -5 0 -6 -4 -8 -8 -5 -4 2 -28 -6 -52 -20 -25 -13 -65 -33 -90 -45 -25
-11 -88 -41 -140 -66 -127 -60 -167 -76 -182 -71 -7 3 -21 -4 -32 -13 -10 -10
-22 -16 -26 -14 -4 3 -13 -2 -20 -10 -7 -8 -18 -15 -25 -15 -6 0 -41 -9 -76
-21 -35 -12 -72 -23 -82 -25 -11 -2 -25 -8 -32 -14 -7 -6 -17 -10 -21 -9 -5 1
-17 -1 -26 -4 -27 -10 -53 -18 -56 -18 -1 1 -17 -5 -36 -13 -19 -8 -38 -11
-42 -8 -4 4 -4 1 0 -5 4 -8 2 -14 -6 -14 -46 -5 -58 -7 -75 -14 -10 -4 -27 -9
-38 -11 -11 -2 -33 -6 -50 -9 -16 -4 -38 -7 -47 -8 -10 -1 -18 -5 -18 -10 0
-4 -4 -6 -9 -3 -5 3 -27 -1 -50 -9 -23 -8 -41 -12 -41 -8 0 3 -7 0 -15 -7 -8
-7 -15 -10 -15 -7 0 3 -15 1 -32 -5 -18 -5 -45 -11 -59 -14 -15 -2 -62 -11
-105 -20 -44 -9 -89 -18 -101 -19 -12 -2 -26 -6 -32 -9 -9 -6 -109 -21 -206
-31 -22 -3 -62 -7 -90 -11 -94 -12 -811 -3 -834 10 -3 2 -42 7 -86 11 -105 9
-116 10 -210 29 -44 8 -102 20 -130 25 -177 33 -437 118 -630 206 -16 8 -59
26 -95 41 -88 36 -250 111 -325 151 -11 6 -33 16 -50 23 -16 7 -37 16 -45 21
-20 11 -137 67 -175 84 -86 38 -153 46 -265 34 -47 -5 -110 -12 -140 -15 -30
-3 -82 -10 -115 -15 -59 -8 -239 -22 -440 -34 -55 -3 -138 -8 -185 -12 -87 -6
-584 -5 -683 2 -30 2 -114 6 -188 10 -74 3 -161 10 -194 15 -33 5 -100 12
-150 15 -49 4 -112 10 -140 15 -27 6 -79 13 -115 16 -36 3 -68 8 -71 10 -7 4
-56 13 -134 24 -33 4 -71 11 -85 15 -28 8 -86 19 -173 34 -31 6 -61 13 -66 16
-5 3 -31 10 -58 15 -85 17 -95 19 -233 56 -74 19 -168 46 -208 60 -40 13 -79
24 -87 24 -9 0 -23 5 -33 10 -15 10 -201 73 -243 84 -9 3 -45 16 -80 29 -35
14 -91 35 -124 47 -33 12 -83 32 -112 46 -28 13 -56 24 -62 24 -5 0 -32 11
-59 25 -28 14 -55 25 -62 25 -23 0 -533 260 -592 301 -14 11 -30 19 -35 19 -5
0 -33 15 -63 34 -30 19 -82 52 -115 72 -103 65 -320 208 -325 214 -3 4 -34 26
-70 50 -58 39 -146 105 -160 121 -3 3 -23 16 -45 29 -22 13 -60 41 -85 63 -25
21 -64 55 -88 75 -24 20 -51 44 -61 53 -10 9 -25 21 -34 25 -13 8 -129 112
-234 209 -24 22 -92 89 -151 148 -59 60 -120 120 -136 135 -62 57 -164 167
-266 287 -24 28 -46 52 -49 55 -10 8 -164 200 -181 225 -19 29 -73 98 -81 105
-5 4 -82 108 -198 265 -17 22 -37 53 -45 69 -8 16 -18 32 -23 35 -5 3 -28 38
-52 76 -24 39 -60 95 -79 125 -20 30 -47 75 -60 100 -13 25 -30 52 -37 60 -7
8 -37 60 -65 115 -29 55 -58 107 -65 115 -12 14 -223 424 -224 435 0 3 -7 18
-15 33 -7 15 -37 83 -66 152 -28 69 -55 130 -59 135 -4 6 -13 30 -20 55 -7 25
-17 50 -21 55 -14 17 -117 312 -179 510 -12 39 -26 79 -32 90 -5 11 -15 49
-23 85 -18 86 -43 183 -61 245 -22 75 -44 165 -49 206 -2 19 -15 93 -29 165
-14 71 -30 165 -36 209 -6 44 -17 121 -25 170 -8 50 -17 119 -20 155 -3 36 -8
90 -11 120 -22 244 -24 280 -28 585 -4 254 0 372 19 550 3 33 7 70 8 83 0 12
4 22 7 22 3 0 5 12 4 28 -1 15 3 36 8 47 6 11 12 51 14 89 2 39 6 72 8 74 2 3
0 13 -6 23 -5 11 -6 19 -2 19 4 0 8 15 9 33 0 17 11 55 23 82 46 103 51 117
51 155 0 35 -13 77 -42 133 -26 52 -71 133 -79 143 -5 6 -37 66 -72 135 -35
68 -75 145 -89 171 -15 26 -34 69 -44 95 -10 27 -35 83 -56 126 -21 43 -38 84
-38 92 0 8 -9 34 -20 57 -27 61 -70 174 -70 187 0 6 -9 39 -20 73 -28 89 -77
264 -106 377 -33 128 -31 118 -38 181 -4 30 -16 96 -26 146 -18 87 -22 119
-36 313 -8 108 -8 273 -1 381 12 158 19 285 18 300 -3 60 0 100 9 124 5 15 10
57 10 94 0 37 4 83 9 102 5 19 12 62 15 95 6 64 7 70 28 185 8 42 11 87 7 102
-6 22 -4 26 10 20 14 -5 15 -4 1 13 -9 11 -10 16 -2 11 9 -5 12 7 12 48 0 55
-8 78 -12 34z m366 -3907 c14 -15 16 -32 10 -102 -3 -46 -10 -99 -16 -117 -31
-101 -87 -407 -98 -532 -5 -58 -12 -125 -14 -150 -12 -125 -16 -227 -16 -462
-1 -142 -5 -260 -10 -263 -5 -3 -7 -22 -5 -43 l5 -37 -9 35 c-5 19 -10 71 -10
115 0 44 -4 185 -9 313 -16 383 6 647 84 1012 14 63 30 140 35 170 18 91 22
96 53 61z m-147 -1813 c-3 -7 -5 -2 -5 12 0 14 2 19 5 13 2 -7 2 -19 0 -25z
m3813 -6378 c0 -5 -5 -10 -11 -10 -5 0 -7 5 -4 10 3 6 8 10 11 10 2 0 4 -4 4
-10z m7988 -887 c-10 -2 -26 -2 -35 0 -10 3 -2 5 17 5 19 0 27 -2 18 -5z"/>
<path d="M10411 18489 c-46 -54 -35 -56 13 -2 21 24 35 43 30 42 -5 0 -24 -18
-43 -40z"/>
<path d="M10303 18364 c-21 -25 -72 -80 -113 -124 -80 -84 -101 -109 -153
-180 -17 -25 -46 -57 -62 -72 -17 -14 -37 -39 -45 -55 -8 -15 -34 -52 -57 -81
-24 -30 -43 -59 -43 -66 0 -7 -8 -21 -18 -32 -10 -11 -31 -42 -47 -69 -16 -28
-39 -63 -51 -80 -12 -16 -44 -75 -71 -130 -28 -55 -57 -113 -66 -130 -32 -62
-68 -141 -71 -160 -2 -11 -18 -50 -36 -85 -17 -36 -40 -92 -51 -125 -11 -33
-27 -75 -35 -93 -8 -18 -12 -37 -9 -42 3 -6 1 -10 -4 -10 -6 0 -11 -7 -11 -16
0 -8 -12 -45 -26 -80 -14 -35 -36 -115 -50 -177 -34 -157 -34 -160 -41 -170
-5 -8 -8 -30 -15 -104 -1 -13 -5 -23 -9 -23 -4 0 -7 -10 -8 -22 0 -13 -3 -39
-6 -58 -4 -19 -7 -47 -8 -62 -1 -16 -4 -28 -8 -28 -4 0 -5 -17 -3 -37 2 -20
-2 -43 -7 -50 -6 -7 -9 -19 -6 -27 3 -7 0 -19 -6 -26 -9 -10 -9 -11 3 -5 12 7
13 6 4 -6 -8 -9 -11 -48 -10 -104 1 -49 -1 -102 -5 -117 -5 -19 -4 -28 4 -28
7 0 6 -4 -3 -10 -8 -5 -10 -10 -3 -10 8 0 11 -26 9 -85 -1 -47 2 -85 6 -85 4
0 6 -25 4 -55 -2 -30 1 -52 6 -49 4 3 6 -11 4 -30 -3 -21 0 -36 6 -36 5 0 8
-7 5 -15 -4 -8 -2 -17 4 -21 6 -4 5 -12 -3 -22 -10 -12 -10 -14 0 -8 8 5 12
-2 14 -26 1 -39 3 -47 11 -70 25 -65 23 -61 37 -116 6 -24 8 -47 5 -53 -4 -5
-1 -9 4 -9 6 0 11 -6 11 -12 0 -7 6 -24 13 -38 7 -14 12 -35 11 -48 -1 -13 5
-26 12 -29 8 -3 14 -20 14 -39 0 -19 3 -33 8 -33 19 3 23 -2 13 -15 -9 -11 -8
-15 5 -20 10 -4 14 -12 10 -22 -4 -11 -2 -15 8 -11 9 4 15 0 14 -11 0 -32 11
-61 31 -81 12 -12 21 -25 21 -31 0 -20 3 -25 22 -38 10 -7 16 -18 13 -23 -4
-5 -2 -9 4 -9 6 0 8 -7 5 -15 -4 -8 -1 -15 5 -15 6 0 10 -6 8 -12 -1 -7 3 -12
10 -11 7 2 10 -4 7 -12 -4 -8 1 -17 10 -21 9 -3 16 -12 16 -20 0 -8 3 -14 8
-14 4 0 13 -9 20 -21 9 -14 10 -19 2 -14 -9 6 -9 2 -1 -14 7 -11 14 -21 17
-21 3 0 2 6 -2 13 -4 7 -3 8 2 4 5 -5 9 -14 9 -22 0 -21 56 -86 68 -78 6 4 8
-2 4 -16 -4 -17 -2 -21 9 -17 8 3 12 2 9 -4 -8 -12 16 -50 32 -50 7 0 10 -7 7
-15 -4 -11 -2 -13 9 -10 10 4 17 -2 21 -19 4 -16 16 -28 32 -32 17 -4 22 -9
14 -14 -9 -5 -9 -9 -1 -14 6 -4 11 -4 11 -1 0 4 7 0 15 -9 8 -8 15 -22 15 -31
0 -9 4 -13 10 -10 6 3 7 -1 4 -9 -6 -15 6 -21 29 -17 5 1 6 -3 2 -9 -8 -13 12
-40 29 -40 6 0 4 5 -4 10 -13 8 -12 10 3 10 14 0 17 -5 12 -22 -6 -16 -4 -20
8 -15 12 4 15 1 12 -15 -3 -11 -2 -18 2 -15 3 4 12 -1 20 -11 9 -10 12 -11 7
-2 -4 8 9 -3 29 -24 20 -22 34 -42 32 -46 -2 -4 7 -6 21 -4 14 1 23 0 20 -3
-2 -3 0 -10 5 -17 5 -6 18 -22 29 -35 12 -14 26 -21 35 -17 9 3 15 0 15 -10 0
-9 9 -18 20 -21 11 -3 18 -9 15 -13 -3 -5 -1 -11 5 -15 5 -3 10 -1 10 5 0 6
12 -2 26 -19 14 -17 31 -31 37 -31 7 0 23 -10 37 -23 14 -13 32 -21 39 -19 8
3 11 0 8 -5 -7 -11 25 -30 58 -35 11 -2 19 -11 19 -19 -1 -9 4 -16 10 -17 26
-2 45 -9 57 -19 8 -6 24 -14 37 -17 12 -4 20 -12 17 -17 -4 -5 6 -9 20 -9 20
0 26 -4 21 -16 -3 -9 -2 -12 5 -9 5 4 27 -6 47 -21 22 -17 31 -21 22 -9 -15
18 -14 18 18 0 17 -11 32 -23 32 -27 0 -4 5 -8 11 -8 5 0 7 5 3 12 -4 7 -3 8
5 4 6 -4 9 -12 6 -17 -4 -5 0 -9 8 -9 8 0 18 -7 21 -16 4 -10 14 -14 26 -11
11 3 18 1 15 -3 -7 -11 31 -33 65 -38 14 -2 29 -10 33 -18 4 -8 15 -14 23 -14
8 0 13 -4 9 -9 -3 -6 3 -8 15 -6 11 2 23 -1 26 -7 5 -7 2 -8 -6 -3 -8 5 -11 4
-6 -3 3 -5 25 -13 49 -17 23 -4 44 -10 47 -14 6 -8 71 -33 88 -34 6 0 12 -5
12 -10 0 -5 7 -6 16 -3 15 6 15 4 3 -10 -12 -15 -12 -16 8 -10 13 4 27 1 37
-9 9 -9 16 -13 16 -10 0 4 11 0 25 -9 13 -9 32 -17 42 -19 10 -1 24 -6 31 -10
6 -5 12 -5 12 -1 0 4 7 -1 16 -12 8 -10 12 -13 8 -5 -5 10 -3 12 7 5 8 -5 19
-9 24 -10 6 0 16 -2 23 -2 7 -1 10 -7 6 -14 -4 -7 -3 -8 5 -4 15 9 101 -23
101 -38 0 -6 5 -4 10 4 7 12 13 11 36 -10 15 -14 24 -20 21 -14 -4 7 8 5 28
-4 19 -9 32 -19 29 -24 -5 -7 18 -12 39 -9 4 0 7 -3 7 -7 0 -5 14 -9 31 -10
17 0 37 -6 45 -13 8 -6 17 -9 20 -6 4 3 13 0 21 -8 8 -8 19 -15 26 -15 6 0 2
7 -9 16 -18 14 -18 15 4 4 12 -6 22 -15 22 -20 0 -6 5 -10 11 -10 5 0 8 4 5 9
-4 5 3 7 14 4 11 -3 25 -15 31 -26 9 -16 13 -17 21 -6 6 9 11 10 14 3 2 -6 18
-8 34 -6 18 3 30 0 30 -7 0 -6 11 -11 24 -11 14 0 28 -4 31 -10 3 -5 21 -10
40 -10 22 0 35 -6 39 -17 4 -11 10 -13 14 -7 5 6 26 2 59 -11 29 -12 50 -24
47 -28 -3 -3 3 -3 14 0 11 2 30 0 42 -7 16 -9 25 -9 36 1 12 10 15 10 12 0 -3
-13 7 -17 57 -25 82 -13 104 -19 100 -26 -3 -4 4 -6 15 -3 12 3 20 0 20 -6 0
-7 4 -10 9 -6 5 3 13 0 16 -6 4 -5 14 -8 22 -5 8 3 12 2 9 -3 -3 -5 4 -9 17
-10 56 -3 76 -8 91 -20 9 -7 23 -10 32 -7 9 3 21 3 27 -1 7 -4 21 -8 32 -10
11 -1 36 -4 55 -8 19 -3 49 -6 65 -6 17 -1 46 -8 65 -16 19 -9 48 -18 65 -19
16 -2 41 -7 55 -11 14 -3 28 -7 33 -8 4 -2 8 -4 10 -5 2 -3 9 -4 87 -14 70 -9
104 -17 117 -28 7 -6 27 -8 43 -6 17 3 33 1 36 -4 3 -4 20 -8 39 -8 19 0 37
-4 40 -10 3 -5 19 -10 34 -10 15 0 32 -5 37 -10 7 -7 19 -8 36 -1 21 8 30 6
47 -10 11 -11 21 -15 21 -8 0 7 8 9 23 4 12 -4 33 -6 46 -6 14 1 27 -3 31 -9
3 -5 30 -12 60 -16 30 -3 60 -10 66 -16 7 -5 16 -8 20 -7 5 1 12 0 17 -1 10
-4 14 -4 102 -24 44 -10 85 -25 92 -33 7 -9 19 -12 32 -8 12 3 21 2 21 -4 0
-5 12 -10 28 -10 34 0 65 -7 91 -20 11 -6 33 -11 50 -11 17 0 36 -6 43 -13 7
-8 20 -12 30 -9 10 2 18 0 18 -6 0 -14 58 -33 65 -21 4 5 21 -1 38 -14 18 -13
43 -24 56 -25 13 0 28 -7 32 -14 5 -7 9 -9 9 -4 0 4 10 2 23 -6 12 -7 34 -13
49 -13 17 1 30 -5 33 -15 5 -15 71 -47 88 -42 4 1 6 -1 6 -5 -3 -21 2 -26 12
-13 8 11 12 12 16 3 2 -7 11 -13 19 -13 9 0 13 -4 10 -9 -6 -9 22 -26 36 -23
5 1 13 -6 19 -17 8 -11 19 -16 31 -13 10 2 24 -1 31 -7 8 -6 17 -8 20 -4 4 3
7 1 7 -6 0 -16 21 -36 38 -36 6 0 13 -4 13 -10 1 -5 15 -18 31 -28 16 -9 31
-24 34 -32 4 -8 9 -13 13 -11 3 2 12 -2 19 -10 7 -8 11 -14 9 -14 -3 0 12 -17
32 -38 20 -22 39 -37 44 -35 4 3 7 1 6 -4 -4 -22 3 -33 19 -33 24 0 42 -19 42
-46 0 -12 7 -24 15 -28 8 -3 15 -11 15 -17 0 -6 8 -19 18 -28 19 -17 33 -43
39 -76 2 -11 6 -27 10 -35 9 -23 12 -32 18 -70 3 -19 10 -46 14 -60 11 -34 7
-186 -6 -202 -6 -7 -9 -22 -7 -33 1 -10 -1 -24 -6 -30 -5 -6 -11 -27 -14 -47
-4 -36 -23 -77 -41 -90 -6 -5 -5 -8 3 -8 11 0 11 -3 0 -15 -30 -33 -38 -45
-38 -54 0 -6 -9 -15 -20 -21 -11 -6 -20 -15 -20 -20 0 -6 -7 -18 -15 -27 -48
-55 -105 -128 -105 -135 0 -4 -5 -8 -11 -8 -7 0 -18 -8 -25 -17 -7 -10 -17
-19 -23 -19 -6 -1 -16 -2 -22 -3 -5 0 -7 -5 -4 -11 8 -13 -42 -60 -77 -72 -16
-6 -28 -16 -28 -22 0 -7 -18 -18 -40 -25 -26 -8 -40 -18 -41 -29 0 -9 -3 -12
-5 -6 -3 7 -14 10 -24 7 -11 -3 -17 -10 -13 -16 4 -6 0 -8 -10 -4 -10 3 -17 2
-17 -4 0 -6 -4 -7 -10 -4 -5 3 -10 2 -10 -4 0 -6 -6 -8 -14 -5 -7 3 -16 -2
-19 -10 -8 -20 -14 -21 74 10 315 109 566 269 794 505 191 198 286 357 328
544 68 306 -18 573 -262 816 -163 162 -351 261 -741 392 -346 117 -615 182
-1149 278 -1033 186 -1982 486 -2631 832 -529 282 -747 431 -981 675 -392 407
-624 832 -723 1322 -74 365 -60 655 55 1119 132 534 347 1002 637 1384 85 111
102 141 35 61z m-33 -4714 c0 -5 -2 -10 -4 -10 -3 0 -8 5 -11 10 -3 6 -1 10 4
10 6 0 11 -4 11 -10z"/>
<path d="M13560 17878 c-132 -12 -306 -43 -429 -79 -610 -176 -1139 -640
-1254 -1101 -19 -77 -33 -242 -18 -218 5 8 11 26 13 40 1 14 13 35 26 48 12
13 22 32 22 42 0 11 9 25 20 32 11 7 20 18 20 25 0 7 8 23 18 34 113 141 243
274 255 263 4 -4 7 -1 7 8 0 15 44 58 60 58 10 0 82 39 90 49 7 8 33 24 105
62 33 17 64 35 70 40 5 5 17 9 27 9 10 0 18 5 18 10 0 6 9 10 20 10 11 0 20 4
20 10 0 5 7 7 15 4 8 -4 15 -2 15 4 0 6 23 13 50 17 28 4 56 13 64 20 7 7 22
15 32 17 10 2 22 7 25 11 3 5 30 10 60 13 54 5 89 10 99 14 3 1 8 2 13 1 4 0
7 3 7 7 0 5 6 9 13 10 6 0 41 3 77 6 36 3 88 8 115 11 91 10 177 8 185 -5 5
-8 13 -9 21 -4 20 12 119 13 119 2 0 -6 8 -7 18 -3 20 9 21 9 92 -1 30 -4 65
-8 77 -8 11 -1 19 -4 16 -8 -2 -5 6 -8 19 -9 32 -1 93 -12 121 -22 61 -24 62
-24 131 -30 27 -3 52 -10 55 -15 7 -12 111 -54 111 -45 0 3 9 -2 21 -13 12
-10 23 -18 25 -16 2 1 13 2 25 2 13 0 18 -4 13 -12 -5 -8 -2 -9 11 -4 11 4 26
0 38 -11 11 -10 17 -12 13 -6 -5 9 -2 11 8 7 8 -3 18 -14 21 -24 3 -10 15 -20
25 -23 13 -3 18 -1 13 5 -10 18 21 -4 35 -24 7 -10 24 -18 37 -18 13 0 33 -9
43 -21 26 -27 90 -61 102 -54 6 4 10 -1 10 -11 0 -11 6 -15 20 -11 11 3 20 1
20 -5 0 -5 5 -6 12 -2 7 5 9 2 5 -9 -7 -17 37 -52 53 -42 6 3 10 1 10 -4 0 -6
7 -11 15 -11 8 0 15 -4 15 -10 0 -5 3 -9 8 -9 20 3 31 -2 26 -15 -3 -8 0 -17
7 -22 8 -5 10 -3 4 5 -6 10 -3 11 14 2 11 -6 25 -20 31 -31 6 -11 16 -20 23
-20 8 0 7 4 -3 11 -13 9 -13 10 0 6 8 -2 14 -11 12 -20 -2 -12 2 -15 14 -10
11 4 15 3 10 -5 -10 -16 28 -34 42 -20 8 8 14 4 21 -16 6 -14 21 -31 33 -36
30 -13 55 -30 85 -57 14 -12 34 -25 44 -28 11 -4 19 -11 19 -16 0 -5 7 -9 15
-9 8 0 15 -4 15 -10 0 -5 9 -10 21 -10 15 0 19 -5 15 -16 -3 -8 -2 -12 3 -9 5
3 12 1 16 -5 3 -5 11 -10 16 -10 6 0 7 5 3 12 -4 7 -3 8 5 4 8 -6 9 -12 2 -20
-8 -9 -4 -16 14 -26 13 -7 22 -17 19 -22 -3 -4 1 -8 9 -8 7 0 24 -11 36 -24
13 -14 31 -23 41 -21 14 3 18 -1 15 -16 -2 -10 0 -21 6 -24 5 -4 9 -1 9 4 0 6
5 11 11 11 6 0 8 -7 5 -16 -3 -8 -2 -13 3 -10 5 3 12 -1 15 -10 3 -8 10 -12
16 -9 5 3 10 2 10 -3 0 -5 12 -14 26 -20 14 -7 22 -17 18 -23 -4 -7 0 -9 14
-5 12 4 23 2 28 -5 5 -8 3 -10 -7 -4 -8 4 -4 -2 9 -14 12 -12 27 -19 32 -16 5
3 17 -10 27 -29 10 -22 24 -36 35 -36 10 0 21 -7 24 -15 4 -8 12 -15 19 -15 7
0 16 -7 19 -16 4 -9 13 -14 21 -10 8 3 15 1 15 -4 0 -6 -5 -10 -11 -10 -7 0 0
-9 15 -21 14 -11 30 -17 36 -14 5 3 10 -1 10 -9 0 -9 6 -16 14 -16 8 0 18 -9
21 -20 5 -15 12 -19 26 -15 11 4 19 2 19 -5 0 -6 7 -18 15 -26 8 -9 15 -11 15
-5 0 6 6 11 14 11 8 0 13 -8 12 -17 0 -10 5 -18 12 -19 6 -1 18 -2 26 -3 8 0
17 -12 20 -26 5 -18 13 -25 32 -25 14 0 23 -4 20 -9 -5 -8 20 -36 33 -36 3 0
5 -4 3 -10 -2 -5 -1 -7 3 -3 3 3 18 0 32 -7 15 -8 31 -11 36 -8 6 4 8 -1 3
-12 -5 -15 -4 -16 9 -5 10 8 15 9 15 1 0 -6 7 -11 16 -11 8 0 12 -4 9 -10 -3
-5 1 -10 10 -10 10 0 13 5 9 12 -4 7 -3 8 4 4 6 -4 8 -14 5 -23 -4 -11 -3 -14
5 -9 7 4 12 2 12 -4 0 -6 12 -9 27 -8 16 2 28 -2 28 -9 0 -20 13 -25 36 -13
19 11 21 10 15 -5 -5 -14 -2 -16 18 -11 14 3 28 0 35 -8 8 -9 26 -13 52 -10
25 2 38 0 34 -6 -3 -6 0 -10 9 -10 8 0 17 6 19 13 3 7 6 8 6 1 1 -7 12 -9 27
-6 18 3 25 1 20 -6 -4 -7 9 -9 41 -5 27 2 83 5 125 5 49 1 75 5 71 11 -4 6 3
8 16 4 13 -3 24 0 27 7 3 7 15 11 28 9 13 -3 30 2 39 12 9 9 27 17 40 19 13 1
27 5 32 8 6 3 25 9 43 13 18 3 30 10 27 15 -6 10 31 24 44 16 5 -3 19 5 32 18
13 13 35 27 49 31 27 9 116 72 152 108 13 13 43 39 68 59 62 50 97 85 150 149
25 29 55 64 67 76 12 13 19 23 15 23 -4 0 -2 4 3 8 12 8 47 73 43 78 -2 1 -26
-14 -53 -35 -136 -102 -271 -171 -407 -209 -123 -34 -301 -16 -469 47 -86 33
-282 158 -394 252 -11 10 -108 90 -215 180 -107 90 -249 208 -315 263 -66 56
-149 124 -184 151 -35 28 -87 68 -115 91 -172 136 -534 382 -705 479 -209 118
-445 210 -626 245 -33 6 -80 15 -105 21 -121 26 -378 33 -570 17z m1805 -1388
c3 -6 -1 -7 -9 -4 -18 7 -21 14 -7 14 6 0 13 -4 16 -10z"/>
<path d="M9601 11795 c-35 -36 -60 -65 -55 -65 4 0 -11 -14 -34 -31 -23 -17
-40 -34 -38 -37 2 -4 -13 -20 -35 -36 -21 -17 -39 -36 -39 -43 0 -7 -4 -13 -8
-13 -4 0 -15 -12 -24 -27 -9 -16 -29 -42 -45 -59 -44 -48 -67 -84 -109 -164
-21 -41 -43 -78 -49 -82 -6 -5 -7 -8 0 -8 6 0 5 -3 -1 -8 -6 -4 -23 -45 -39
-92 -15 -47 -31 -89 -36 -95 -5 -5 -9 -19 -9 -30 0 -12 -6 -35 -14 -51 -14
-28 -30 -130 -42 -269 -8 -89 -11 -235 -4 -235 3 0 5 -29 5 -66 0 -36 5 -68
10 -72 6 -4 11 -23 13 -42 5 -69 10 -95 26 -125 9 -16 16 -36 16 -43 0 -7 7
-23 15 -35 12 -19 21 -49 24 -80 1 -5 4 -6 9 -4 4 3 7 -11 8 -30 0 -19 7 -39
15 -43 8 -5 14 -13 15 -17 0 -4 6 -21 12 -36 7 -16 12 -33 12 -38 0 -5 5 -9
10 -9 6 0 10 -9 10 -20 0 -11 9 -25 20 -32 11 -7 20 -17 20 -21 0 -5 7 -15 15
-24 8 -8 13 -18 10 -23 -3 -4 2 -11 11 -14 8 -3 12 -10 9 -16 -3 -6 1 -13 9
-16 9 -3 16 -15 16 -26 0 -10 23 -41 50 -69 28 -28 60 -69 72 -92 11 -23 29
-48 39 -55 11 -7 19 -20 19 -28 0 -8 9 -14 20 -14 11 0 20 -7 20 -15 0 -8 7
-15 15 -15 8 0 24 -11 37 -23 38 -39 83 -92 80 -94 -6 -8 0 -23 9 -23 6 0 28
-17 48 -38 20 -21 51 -47 69 -58 19 -12 39 -31 45 -44 7 -12 14 -21 17 -19 9
7 38 -25 32 -35 -3 -5 0 -6 6 -2 6 4 18 -5 28 -19 9 -13 20 -22 25 -19 5 3 9
1 9 -5 0 -12 32 -43 74 -74 17 -12 26 -15 21 -6 -5 7 6 -1 25 -19 18 -19 45
-41 59 -50 14 -9 32 -25 39 -34 7 -10 19 -18 27 -18 7 0 16 -9 20 -19 5 -18
23 -27 70 -37 11 -3 22 -9 23 -14 2 -6 8 -10 13 -10 10 0 24 -10 63 -47 13
-12 27 -19 30 -16 3 4 6 -2 6 -11 0 -12 5 -16 15 -12 8 3 15 0 15 -6 0 -6 3
-9 6 -5 3 3 22 -10 41 -29 19 -19 38 -32 42 -29 5 2 16 -4 25 -14 10 -11 31
-25 47 -31 16 -7 29 -16 29 -21 0 -5 9 -9 20 -9 11 0 20 -5 20 -11 0 -5 4 -8
9 -4 5 3 17 -2 25 -11 9 -8 16 -12 16 -9 0 4 15 -3 33 -14 19 -11 36 -18 40
-15 3 3 15 -3 26 -13 12 -10 26 -19 31 -19 6 -1 15 -2 20 -3 6 0 10 -8 10 -16
0 -8 7 -15 15 -15 8 0 15 -5 15 -11 0 -5 5 -7 10 -4 6 3 10 1 10 -5 0 -7 7 -9
16 -6 9 4 23 1 30 -5 10 -8 14 -8 14 -1 0 6 21 1 47 -13 26 -13 51 -21 55 -19
4 3 8 0 8 -5 0 -6 6 -11 14 -11 7 0 19 -7 26 -15 7 -8 16 -12 21 -9 5 3 9 1 9
-4 0 -12 35 -24 82 -26 20 -2 44 -8 52 -15 8 -7 21 -11 28 -8 7 2 21 0 31 -5
10 -5 28 -11 39 -13 12 -3 24 -9 27 -14 8 -13 122 -52 132 -45 5 3 9 1 9 -5 0
-6 7 -7 17 -4 9 4 14 2 11 -3 -4 -5 12 -8 35 -8 23 1 47 -3 54 -8 7 -5 27 -12
45 -15 18 -2 51 -9 73 -14 22 -5 48 -12 59 -14 10 -2 23 -8 30 -13 16 -13 66
-21 66 -10 0 5 6 6 13 1 6 -4 26 -8 42 -9 17 -1 44 -5 60 -9 17 -5 44 -8 60
-8 17 1 33 -3 36 -8 3 -5 17 -10 32 -11 15 -1 27 -5 27 -9 0 -3 26 -5 58 -4
31 2 61 0 66 -3 8 -5 90 -13 141 -14 11 0 53 -6 94 -14 92 -18 115 -18 105 -1
-5 7 0 6 10 -3 13 -10 48 -15 120 -17 55 -1 126 -5 156 -8 110 -12 135 -13
154 -3 10 6 21 6 25 2 3 -5 26 -8 51 -8 25 1 60 -2 78 -6 19 -5 30 -5 27 1 -4
5 -1 9 4 9 6 0 11 -4 11 -8 0 -4 24 -6 53 -4 28 2 97 6 152 8 55 2 121 6 148
9 27 2 47 -1 47 -6 0 -6 5 -7 12 -3 7 4 29 8 50 8 21 0 38 4 38 9 0 6 5 6 13
0 14 -11 57 -10 77 2 8 5 11 4 7 -2 -6 -10 16 -10 43 0 36 13 65 15 82 6 11
-6 18 -6 18 0 0 5 8 10 18 9 9 0 58 3 107 7 50 3 117 9 150 11 33 2 85 8 115
13 30 4 61 6 68 4 6 -3 12 -1 12 4 0 5 6 10 13 10 6 0 21 4 31 9 14 5 17 4 12
-4 -9 -14 -1 -15 22 -3 9 5 35 12 56 15 21 4 48 8 60 11 30 7 72 14 146 26 36
6 72 17 80 25 9 7 24 13 35 13 20 1 98 14 148 27 15 3 27 11 27 17 0 6 3 7 7
4 3 -4 13 -1 21 6 13 9 14 9 8 0 -5 -9 -2 -11 8 -7 9 3 16 9 16 13 0 3 12 7
28 8 15 1 42 5 61 9 25 5 30 9 20 16 -10 7 -7 8 10 4 25 -5 104 21 96 33 -2 4
6 7 18 6 24 -2 68 14 78 28 3 5 8 8 10 7 9 -5 89 24 89 32 0 4 13 8 28 8 15 0
33 5 40 12 7 7 43 22 80 35 37 12 63 22 57 23 -18 0 55 40 75 40 11 0 20 5 20
11 0 12 56 34 83 33 9 -1 17 3 17 7 0 5 6 9 14 9 8 0 18 5 22 12 5 7 3 8 -6 3
-8 -5 -11 -4 -6 3 3 6 15 9 26 7 11 -2 20 1 20 6 0 6 4 8 9 5 5 -3 14 1 21 8
6 8 25 18 41 21 16 4 27 10 24 15 -7 11 24 22 38 13 7 -3 9 -3 5 2 -8 8 35 35
57 35 7 0 15 7 19 15 3 8 15 15 26 15 11 0 20 5 20 11 0 5 4 8 9 4 5 -3 17 5
26 17 8 13 17 21 19 18 2 -3 26 11 52 30 27 19 52 34 57 32 4 -1 7 3 7 9 0 5
5 7 10 4 6 -3 10 -3 10 2 0 4 13 17 28 28 27 19 27 19 12 0 -14 -19 -14 -19
10 0 14 11 32 28 41 38 9 9 21 17 26 17 5 0 24 13 43 30 18 16 37 27 41 24 5
-3 9 1 9 8 0 7 14 19 30 26 17 8 46 29 65 48 20 19 38 34 41 34 2 0 26 20 52
45 26 25 50 45 55 45 4 0 5 5 2 10 -3 6 1 13 11 17 9 3 33 22 52 42 20 20 39
36 42 36 8 0 210 207 210 215 0 5 14 13 30 19 17 5 30 15 30 21 0 11 54 77
153 185 26 28 47 55 47 58 0 4 12 20 28 36 15 16 38 46 52 66 14 20 35 46 48
58 12 11 22 27 22 34 0 7 4 13 8 13 10 0 72 93 72 109 0 6 6 11 13 11 11 1 47
51 80 115 9 17 26 41 39 55 13 14 31 40 39 58 7 17 17 32 20 32 4 0 9 7 13 15
11 28 -3 15 -65 -67 -354 -469 -814 -898 -1203 -1122 -531 -307 -1230 -557
-1731 -620 -442 -56 -1181 -81 -1610 -56 -846 51 -1508 204 -2070 481 -530
260 -843 493 -1360 1013 -236 238 -304 321 -402 498 -229 410 -274 852 -124
1205 34 80 93 184 119 211 33 34 65 72 61 72 -3 0 -34 -29 -68 -65z"/>
<path d="M14835 10410 c-3 -5 -1 -10 4 -10 6 0 11 5 11 10 0 6 -2 10 -4 10 -3
0 -8 -4 -11 -10z"/>
<path d="M14648 10353 c7 -3 16 -2 19 1 4 3 -2 6 -13 5 -11 0 -14 -3 -6 -6z"/>
<path d="M7615 9110 c3 -5 8 -10 11 -10 2 0 4 5 4 10 0 6 -5 10 -11 10 -5 0
-7 -4 -4 -10z"/>
<path d="M16020 5719 c0 -5 5 -7 10 -4 6 3 10 8 10 11 0 2 -4 4 -10 4 -5 0
-10 -5 -10 -11z"/>
</g>
</svg>
