<?xml version="1.0" standalone="no"?>
<!DOCTYPE svg PUBLIC "-//W3C//DTD SVG 20010904//EN"
 "http://www.w3.org/TR/2001/REC-SVG-20010904/DTD/svg10.dtd">
<svg version="1.0" xmlns="http://www.w3.org/2000/svg"
 width="2000.000000pt" height="2000.000000pt" viewBox="0 0 2000.000000 2000.000000"
 preserveAspectRatio="xMidYMid meet">

<g transform="translate(0.000000,2000.000000) scale(0.100000,-0.100000)"
fill="#000000" stroke="none">
<path d="M13435 8579 c-3 -4 2 -6 10 -5 21 3 28 13 10 13 -9 0 -18 -4 -20 -8z"/>
<path d="M12826 8563 c-6 -14 -5 -15 5 -6 7 7 10 15 7 18 -3 3 -9 -2 -12 -12z"/>
<path d="M13726 8567 c3 -10 9 -15 12 -12 3 3 0 11 -7 18 -10 9 -11 8 -5 -6z"/>
<path d="M10785 8560 c3 -5 8 -10 11 -10 2 0 4 5 4 10 0 6 -5 10 -11 10 -5 0
-7 -4 -4 -10z"/>
<path d="M11565 8519 c-4 -6 -5 -12 -2 -15 2 -3 7 2 10 11 7 17 1 20 -8 4z"/>
<path d="M13120 8519 c0 -5 5 -7 10 -4 6 3 10 8 10 11 0 2 -4 4 -10 4 -5 0
-10 -5 -10 -11z"/>
<path d="M13490 8511 c5 -11 10 -24 10 -30 0 -8 -68 -11 -211 -11 -165 0 -209
3 -203 13 6 9 5 9 -7 0 -21 -17 -639 -18 -639 0 0 9 -2 9 -8 -1 -6 -9 -82 -12
-333 -11 -284 2 -326 4 -337 18 -11 14 -11 14 -6 -1 6 -16 -28 -17 -535 -17
l-542 1 -157 -151 c-86 -82 -241 -234 -344 -338 l-188 -188 858 -858 857 -857
1195 1195 1195 1195 -85 1 c-47 0 -120 0 -163 -1 -52 -1 -84 3 -95 12 -9 7
-13 8 -9 2 5 -9 -26 -12 -114 -13 -118 -2 -121 -1 -116 19 3 11 1 18 -4 14 -5
-3 -9 2 -9 10 0 9 -5 16 -10 16 -7 0 -7 -6 0 -19z"/>
<path d="M12063 8505 c0 -8 4 -12 9 -9 5 3 6 10 3 15 -9 13 -12 11 -12 -6z"/>
<path d="M13795 8509 c-4 -6 -5 -12 -2 -15 2 -3 7 2 10 11 7 17 1 20 -8 4z"/>
<path d="M11147 8493 c3 -7 6 -13 8 -13 2 0 5 6 8 13 3 8 -1 14 -8 14 -7 0
-11 -6 -8 -14z"/>
<path d="M5900 5241 c0 -6 4 -13 10 -16 6 -3 7 1 4 9 -7 18 -14 21 -14 7z"/>
<path d="M7615 5221 c-3 -5 -2 -12 3 -15 5 -3 9 1 9 9 0 17 -3 19 -12 6z"/>
<path d="M7665 5209 c-4 -6 -5 -12 -2 -15 2 -3 7 2 10 11 7 17 1 20 -8 4z"/>
<path d="M7705 5200 c3 -5 8 -10 11 -10 2 0 4 5 4 10 0 6 -5 10 -11 10 -5 0
-7 -4 -4 -10z"/>
<path d="M6400 5180 c-9 -6 -10 -10 -3 -10 6 0 15 5 18 10 8 12 4 12 -15 0z"/>
<path d="M8485 5159 c-4 -6 -5 -12 -2 -15 2 -3 7 2 10 11 7 17 1 20 -8 4z"/>
<path d="M8983 5145 c0 -8 4 -12 9 -9 5 3 6 10 3 15 -9 13 -12 11 -12 -6z"/>
<path d="M8067 5133 c3 -7 6 -13 8 -13 2 0 5 6 8 13 3 8 -1 14 -8 14 -7 0 -11
-6 -8 -14z"/>
<path d="M7304 5128 c4 -15 -27 -16 -397 -17 -297 0 -405 3 -416 12 -12 9 -13
9 -7 0 5 -10 -52 -12 -259 -11 -146 0 -269 -2 -272 -6 -3 -3 531 -544 1187
-1201 l1194 -1195 1650 0 1651 0 -1200 1200 -1201 1201 -269 1 c-235 1 -272 3
-282 17 -12 14 -12 14 -7 -1 5 -16 -38 -17 -675 -17 -628 0 -682 2 -692 17
-10 15 -10 15 -5 0z"/>
</g>
</svg>
